<mxfile host="app.diagrams.net" modified="2024-04-05T09:00:07.168Z" agent="Mozilla/5.0 (X11; Linux x86_64; rv:109.0) Gecko/20100101 Firefox/115.0" etag="29tzPTWgxCgnSh_rhD0x" version="24.2.1" type="github">
  <diagram id="R2lEEEUBdFMjLlhIrx00" name="Page-1">
    <mxGraphModel dx="1434" dy="1765" grid="1" gridSize="10" guides="1" tooltips="1" connect="1" arrows="1" fold="1" page="1" pageScale="1" pageWidth="850" pageHeight="1100" math="0" shadow="0" extFonts="Permanent Marker^https://fonts.googleapis.com/css?family=Permanent+Marker">
      <root>
        <mxCell id="0" />
        <mxCell id="1" parent="0" />
        <mxCell id="lmcQ0BlkmHQUmphEc5RV-1" value="customer" style="whiteSpace=wrap;html=1;align=center;" parent="1" vertex="1">
          <mxGeometry x="90" y="120" width="100" height="40" as="geometry" />
        </mxCell>
        <mxCell id="lmcQ0BlkmHQUmphEc5RV-8" value="" style="whiteSpace=wrap;html=1;align=center;" parent="1" vertex="1">
          <mxGeometry x="350" y="120" width="100" height="40" as="geometry" />
        </mxCell>
        <mxCell id="lmcQ0BlkmHQUmphEc5RV-13" value="" style="whiteSpace=wrap;html=1;align=center;" parent="1" vertex="1">
          <mxGeometry x="90" y="310" width="100" height="40" as="geometry" />
        </mxCell>
        <mxCell id="lmcQ0BlkmHQUmphEc5RV-15" value="order_service_detail" style="shape=associativeEntity;whiteSpace=wrap;html=1;align=center;" parent="1" vertex="1">
          <mxGeometry x="470" y="105" width="150" height="70" as="geometry" />
        </mxCell>
        <mxCell id="lmcQ0BlkmHQUmphEc5RV-17" value="" style="endArrow=none;html=1;rounded=0;exitX=1;exitY=0.5;exitDx=0;exitDy=0;entryX=0;entryY=0.5;entryDx=0;entryDy=0;" parent="1" source="lmcQ0BlkmHQUmphEc5RV-8" target="lmcQ0BlkmHQUmphEc5RV-15" edge="1">
          <mxGeometry relative="1" as="geometry">
            <mxPoint x="450" y="190" as="sourcePoint" />
            <mxPoint x="450" y="240" as="targetPoint" />
          </mxGeometry>
        </mxCell>
        <mxCell id="lmcQ0BlkmHQUmphEc5RV-21" value="order" style="text;strokeColor=none;align=center;fillColor=none;html=1;verticalAlign=middle;whiteSpace=wrap;rounded=0;" parent="1" vertex="1">
          <mxGeometry x="370" y="125" width="60" height="30" as="geometry" />
        </mxCell>
        <mxCell id="lmcQ0BlkmHQUmphEc5RV-24" value="vehicle" style="text;strokeColor=none;align=center;fillColor=none;html=1;verticalAlign=middle;whiteSpace=wrap;rounded=0;" parent="1" vertex="1">
          <mxGeometry x="110" y="315" width="60" height="30" as="geometry" />
        </mxCell>
        <mxCell id="lmcQ0BlkmHQUmphEc5RV-29" value="service_item_detail" style="shape=associativeEntity;whiteSpace=wrap;html=1;align=center;" parent="1" vertex="1">
          <mxGeometry x="790" y="105" width="120" height="70" as="geometry" />
        </mxCell>
        <mxCell id="lmcQ0BlkmHQUmphEc5RV-30" value="" style="endArrow=none;html=1;rounded=0;entryX=0;entryY=0.5;entryDx=0;entryDy=0;exitX=1;exitY=0.5;exitDx=0;exitDy=0;" parent="1" source="lmcQ0BlkmHQUmphEc5RV-29" edge="1">
          <mxGeometry relative="1" as="geometry">
            <mxPoint x="920" y="140" as="sourcePoint" />
            <mxPoint x="950" y="139.5" as="targetPoint" />
          </mxGeometry>
        </mxCell>
        <mxCell id="lmcQ0BlkmHQUmphEc5RV-48" value="customer_id" style="ellipse;whiteSpace=wrap;html=1;align=center;fontStyle=4;" parent="1" vertex="1">
          <mxGeometry x="21" y="30" width="70" height="30" as="geometry" />
        </mxCell>
        <mxCell id="lmcQ0BlkmHQUmphEc5RV-52" value="" style="endArrow=none;html=1;rounded=0;exitX=0.5;exitY=1;exitDx=0;exitDy=0;entryX=0;entryY=0;entryDx=0;entryDy=0;" parent="1" source="lmcQ0BlkmHQUmphEc5RV-48" target="lmcQ0BlkmHQUmphEc5RV-1" edge="1">
          <mxGeometry relative="1" as="geometry">
            <mxPoint x="140" y="100" as="sourcePoint" />
            <mxPoint x="220" y="100" as="targetPoint" />
          </mxGeometry>
        </mxCell>
        <mxCell id="lmcQ0BlkmHQUmphEc5RV-53" value="" style="endArrow=none;html=1;rounded=0;exitX=0.5;exitY=1;exitDx=0;exitDy=0;entryX=0.25;entryY=0;entryDx=0;entryDy=0;" parent="1" source="lmcQ0BlkmHQUmphEc5RV-55" target="lmcQ0BlkmHQUmphEc5RV-1" edge="1">
          <mxGeometry relative="1" as="geometry">
            <mxPoint x="185" y="70" as="sourcePoint" />
            <mxPoint x="160" y="100" as="targetPoint" />
          </mxGeometry>
        </mxCell>
        <mxCell id="lmcQ0BlkmHQUmphEc5RV-55" value="name" style="ellipse;whiteSpace=wrap;html=1;align=center;" parent="1" vertex="1">
          <mxGeometry x="100" y="40" width="50" height="30" as="geometry" />
        </mxCell>
        <mxCell id="lmcQ0BlkmHQUmphEc5RV-62" value="" style="endArrow=none;html=1;rounded=0;exitX=0.5;exitY=1;exitDx=0;exitDy=0;entryX=0.5;entryY=0;entryDx=0;entryDy=0;" parent="1" source="lmcQ0BlkmHQUmphEc5RV-63" target="lmcQ0BlkmHQUmphEc5RV-1" edge="1">
          <mxGeometry relative="1" as="geometry">
            <mxPoint x="140" y="80" as="sourcePoint" />
            <mxPoint x="165" y="110" as="targetPoint" />
          </mxGeometry>
        </mxCell>
        <mxCell id="lmcQ0BlkmHQUmphEc5RV-63" value="" style="ellipse;whiteSpace=wrap;html=1;align=center;" parent="1" vertex="1">
          <mxGeometry x="150" y="10" width="70" height="40" as="geometry" />
        </mxCell>
        <mxCell id="lmcQ0BlkmHQUmphEc5RV-64" value="contact_no" style="text;strokeColor=none;align=center;fillColor=none;html=1;verticalAlign=middle;whiteSpace=wrap;rounded=0;" parent="1" vertex="1">
          <mxGeometry x="155" y="15" width="60" height="30" as="geometry" />
        </mxCell>
        <mxCell id="lmcQ0BlkmHQUmphEc5RV-65" value="" style="endArrow=none;html=1;rounded=0;exitX=0;exitY=1;exitDx=0;exitDy=0;entryX=0.75;entryY=0;entryDx=0;entryDy=0;" parent="1" source="lmcQ0BlkmHQUmphEc5RV-66" target="lmcQ0BlkmHQUmphEc5RV-1" edge="1">
          <mxGeometry relative="1" as="geometry">
            <mxPoint x="175" y="80" as="sourcePoint" />
            <mxPoint x="200" y="110" as="targetPoint" />
          </mxGeometry>
        </mxCell>
        <mxCell id="lmcQ0BlkmHQUmphEc5RV-66" value="address" style="ellipse;whiteSpace=wrap;html=1;align=center;" parent="1" vertex="1">
          <mxGeometry x="200" y="45" width="50" height="30" as="geometry" />
        </mxCell>
        <mxCell id="lmcQ0BlkmHQUmphEc5RV-71" value="order.id" style="ellipse;whiteSpace=wrap;html=1;align=center;fontStyle=4;" parent="1" vertex="1">
          <mxGeometry x="280" y="20" width="70" height="30" as="geometry" />
        </mxCell>
        <mxCell id="lmcQ0BlkmHQUmphEc5RV-72" value="" style="endArrow=none;html=1;rounded=0;exitX=0.5;exitY=1;exitDx=0;exitDy=0;entryX=0;entryY=0;entryDx=0;entryDy=0;" parent="1" source="lmcQ0BlkmHQUmphEc5RV-71" target="lmcQ0BlkmHQUmphEc5RV-8" edge="1">
          <mxGeometry relative="1" as="geometry">
            <mxPoint x="310" y="50" as="sourcePoint" />
            <mxPoint x="345" y="110" as="targetPoint" />
          </mxGeometry>
        </mxCell>
        <mxCell id="lmcQ0BlkmHQUmphEc5RV-74" value="" style="endArrow=none;html=1;rounded=0;entryX=0.25;entryY=0;entryDx=0;entryDy=0;exitX=0.5;exitY=1;exitDx=0;exitDy=0;" parent="1" source="lmcQ0BlkmHQUmphEc5RV-75" target="lmcQ0BlkmHQUmphEc5RV-8" edge="1">
          <mxGeometry relative="1" as="geometry">
            <mxPoint x="380" y="70" as="sourcePoint" />
            <mxPoint x="370" y="110" as="targetPoint" />
          </mxGeometry>
        </mxCell>
        <mxCell id="lmcQ0BlkmHQUmphEc5RV-75" value="date" style="ellipse;whiteSpace=wrap;html=1;align=center;" parent="1" vertex="1">
          <mxGeometry x="350" y="30" width="50" height="30" as="geometry" />
        </mxCell>
        <mxCell id="lmcQ0BlkmHQUmphEc5RV-78" value="" style="endArrow=none;html=1;rounded=0;exitX=0.375;exitY=0.933;exitDx=0;exitDy=0;entryX=0.5;entryY=0;entryDx=0;entryDy=0;exitPerimeter=0;" parent="1" source="lmcQ0BlkmHQUmphEc5RV-88" target="lmcQ0BlkmHQUmphEc5RV-8" edge="1">
          <mxGeometry relative="1" as="geometry">
            <mxPoint x="415" y="90" as="sourcePoint" />
            <mxPoint x="440" y="120" as="targetPoint" />
          </mxGeometry>
        </mxCell>
        <mxCell id="lmcQ0BlkmHQUmphEc5RV-80" value="description" style="ellipse;whiteSpace=wrap;html=1;align=center;" parent="1" vertex="1">
          <mxGeometry x="510" y="15" width="60" height="30" as="geometry" />
        </mxCell>
        <mxCell id="lmcQ0BlkmHQUmphEc5RV-81" value="" style="endArrow=none;html=1;rounded=0;exitX=0.5;exitY=1;exitDx=0;exitDy=0;entryX=0.75;entryY=0;entryDx=0;entryDy=0;" parent="1" source="lmcQ0BlkmHQUmphEc5RV-80" target="lmcQ0BlkmHQUmphEc5RV-8" edge="1">
          <mxGeometry relative="1" as="geometry">
            <mxPoint x="425" y="100" as="sourcePoint" />
            <mxPoint x="410" y="130" as="targetPoint" />
          </mxGeometry>
        </mxCell>
        <mxCell id="lmcQ0BlkmHQUmphEc5RV-88" value="customer_id" style="ellipse;whiteSpace=wrap;html=1;align=center;" parent="1" vertex="1">
          <mxGeometry x="410" y="20" width="90" height="30" as="geometry" />
        </mxCell>
        <mxCell id="lmcQ0BlkmHQUmphEc5RV-89" value="" style="endArrow=none;html=1;rounded=0;dashed=1;dashPattern=1 2;" parent="1" edge="1">
          <mxGeometry relative="1" as="geometry">
            <mxPoint x="420" y="44" as="sourcePoint" />
            <mxPoint x="490" y="44" as="targetPoint" />
          </mxGeometry>
        </mxCell>
        <mxCell id="lmcQ0BlkmHQUmphEc5RV-92" value="vehicle_no" style="ellipse;whiteSpace=wrap;html=1;align=center;fontStyle=4;" parent="1" vertex="1">
          <mxGeometry x="60" y="390" width="80" height="30" as="geometry" />
        </mxCell>
        <mxCell id="lmcQ0BlkmHQUmphEc5RV-93" value="" style="endArrow=none;html=1;rounded=0;exitX=0.25;exitY=1;exitDx=0;exitDy=0;entryX=0.5;entryY=0;entryDx=0;entryDy=0;" parent="1" source="lmcQ0BlkmHQUmphEc5RV-13" target="lmcQ0BlkmHQUmphEc5RV-92" edge="1">
          <mxGeometry relative="1" as="geometry">
            <mxPoint x="100" y="355" as="sourcePoint" />
            <mxPoint x="90" y="405" as="targetPoint" />
          </mxGeometry>
        </mxCell>
        <mxCell id="lmcQ0BlkmHQUmphEc5RV-94" value="type" style="ellipse;whiteSpace=wrap;html=1;align=center;" parent="1" vertex="1">
          <mxGeometry x="115" y="370" width="55" height="20" as="geometry" />
        </mxCell>
        <mxCell id="lmcQ0BlkmHQUmphEc5RV-95" value="" style="endArrow=none;html=1;rounded=0;exitX=0.5;exitY=1;exitDx=0;exitDy=0;entryX=0.5;entryY=0;entryDx=0;entryDy=0;" parent="1" source="lmcQ0BlkmHQUmphEc5RV-13" target="lmcQ0BlkmHQUmphEc5RV-94" edge="1">
          <mxGeometry relative="1" as="geometry">
            <mxPoint x="224.5" y="355" as="sourcePoint" />
            <mxPoint x="224.5" y="405" as="targetPoint" />
          </mxGeometry>
        </mxCell>
        <mxCell id="lmcQ0BlkmHQUmphEc5RV-96" value="capacity" style="ellipse;whiteSpace=wrap;html=1;align=center;" parent="1" vertex="1">
          <mxGeometry x="165" y="400" width="50" height="30" as="geometry" />
        </mxCell>
        <mxCell id="lmcQ0BlkmHQUmphEc5RV-97" value="" style="endArrow=none;html=1;rounded=0;exitX=0.75;exitY=1;exitDx=0;exitDy=0;entryX=0.5;entryY=0;entryDx=0;entryDy=0;" parent="1" source="lmcQ0BlkmHQUmphEc5RV-13" target="lmcQ0BlkmHQUmphEc5RV-96" edge="1">
          <mxGeometry relative="1" as="geometry">
            <mxPoint x="225" y="360" as="sourcePoint" />
            <mxPoint x="210" y="400" as="targetPoint" />
          </mxGeometry>
        </mxCell>
        <mxCell id="lmcQ0BlkmHQUmphEc5RV-108" value="payment" style="whiteSpace=wrap;html=1;align=center;" parent="1" vertex="1">
          <mxGeometry x="350" y="340" width="100" height="40" as="geometry" />
        </mxCell>
        <mxCell id="lmcQ0BlkmHQUmphEc5RV-110" value="payment_id" style="ellipse;whiteSpace=wrap;html=1;align=center;fontStyle=4;" parent="1" vertex="1">
          <mxGeometry x="279" y="443" width="80" height="30" as="geometry" />
        </mxCell>
        <mxCell id="lmcQ0BlkmHQUmphEc5RV-111" value="" style="endArrow=none;html=1;rounded=0;exitX=0.25;exitY=1;exitDx=0;exitDy=0;entryX=0.5;entryY=0;entryDx=0;entryDy=0;" parent="1" source="lmcQ0BlkmHQUmphEc5RV-108" target="lmcQ0BlkmHQUmphEc5RV-110" edge="1">
          <mxGeometry relative="1" as="geometry">
            <mxPoint x="320" y="465" as="sourcePoint" />
            <mxPoint x="310" y="515" as="targetPoint" />
          </mxGeometry>
        </mxCell>
        <mxCell id="lmcQ0BlkmHQUmphEc5RV-112" value="ammount" style="ellipse;whiteSpace=wrap;html=1;align=center;" parent="1" vertex="1">
          <mxGeometry x="355" y="462" width="55" height="20" as="geometry" />
        </mxCell>
        <mxCell id="lmcQ0BlkmHQUmphEc5RV-113" value="" style="endArrow=none;html=1;rounded=0;exitX=0.5;exitY=1;exitDx=0;exitDy=0;entryX=0.5;entryY=0;entryDx=0;entryDy=0;" parent="1" source="lmcQ0BlkmHQUmphEc5RV-108" target="lmcQ0BlkmHQUmphEc5RV-112" edge="1">
          <mxGeometry relative="1" as="geometry">
            <mxPoint x="444.5" y="465" as="sourcePoint" />
            <mxPoint x="444.5" y="515" as="targetPoint" />
          </mxGeometry>
        </mxCell>
        <mxCell id="lmcQ0BlkmHQUmphEc5RV-114" value="date" style="ellipse;whiteSpace=wrap;html=1;align=center;" parent="1" vertex="1">
          <mxGeometry x="422" y="441" width="50" height="30" as="geometry" />
        </mxCell>
        <mxCell id="lmcQ0BlkmHQUmphEc5RV-115" value="" style="endArrow=none;html=1;rounded=0;exitX=0.75;exitY=1;exitDx=0;exitDy=0;entryX=0.5;entryY=0;entryDx=0;entryDy=0;" parent="1" source="lmcQ0BlkmHQUmphEc5RV-108" target="lmcQ0BlkmHQUmphEc5RV-114" edge="1">
          <mxGeometry relative="1" as="geometry">
            <mxPoint x="445" y="470" as="sourcePoint" />
            <mxPoint x="430" y="510" as="targetPoint" />
          </mxGeometry>
        </mxCell>
        <mxCell id="lmcQ0BlkmHQUmphEc5RV-139" value="" style="whiteSpace=wrap;html=1;align=center;" parent="1" vertex="1">
          <mxGeometry x="652.5" y="351" width="100" height="40" as="geometry" />
        </mxCell>
        <mxCell id="lmcQ0BlkmHQUmphEc5RV-140" value="employee" style="text;strokeColor=none;align=center;fillColor=none;html=1;verticalAlign=middle;whiteSpace=wrap;rounded=0;" parent="1" vertex="1">
          <mxGeometry x="672.5" y="356" width="60" height="30" as="geometry" />
        </mxCell>
        <mxCell id="lmcQ0BlkmHQUmphEc5RV-141" value="employee_id" style="ellipse;whiteSpace=wrap;html=1;align=center;fontStyle=4;" parent="1" vertex="1">
          <mxGeometry x="622.5" y="431" width="80" height="30" as="geometry" />
        </mxCell>
        <mxCell id="lmcQ0BlkmHQUmphEc5RV-142" value="" style="endArrow=none;html=1;rounded=0;exitX=0.25;exitY=1;exitDx=0;exitDy=0;entryX=0.5;entryY=0;entryDx=0;entryDy=0;" parent="1" source="lmcQ0BlkmHQUmphEc5RV-139" target="lmcQ0BlkmHQUmphEc5RV-141" edge="1">
          <mxGeometry relative="1" as="geometry">
            <mxPoint x="662.5" y="396" as="sourcePoint" />
            <mxPoint x="652.5" y="446" as="targetPoint" />
          </mxGeometry>
        </mxCell>
        <mxCell id="lmcQ0BlkmHQUmphEc5RV-143" value="salary" style="ellipse;whiteSpace=wrap;html=1;align=center;" parent="1" vertex="1">
          <mxGeometry x="677.5" y="411" width="55" height="20" as="geometry" />
        </mxCell>
        <mxCell id="lmcQ0BlkmHQUmphEc5RV-144" value="" style="endArrow=none;html=1;rounded=0;exitX=0.5;exitY=1;exitDx=0;exitDy=0;entryX=0.5;entryY=0;entryDx=0;entryDy=0;" parent="1" source="lmcQ0BlkmHQUmphEc5RV-139" target="lmcQ0BlkmHQUmphEc5RV-143" edge="1">
          <mxGeometry relative="1" as="geometry">
            <mxPoint x="787" y="396" as="sourcePoint" />
            <mxPoint x="787" y="446" as="targetPoint" />
          </mxGeometry>
        </mxCell>
        <mxCell id="lmcQ0BlkmHQUmphEc5RV-145" value="name" style="ellipse;whiteSpace=wrap;html=1;align=center;" parent="1" vertex="1">
          <mxGeometry x="727.5" y="441" width="50" height="30" as="geometry" />
        </mxCell>
        <mxCell id="lmcQ0BlkmHQUmphEc5RV-146" value="" style="endArrow=none;html=1;rounded=0;exitX=0.75;exitY=1;exitDx=0;exitDy=0;entryX=0.5;entryY=0;entryDx=0;entryDy=0;" parent="1" source="lmcQ0BlkmHQUmphEc5RV-139" target="lmcQ0BlkmHQUmphEc5RV-145" edge="1">
          <mxGeometry relative="1" as="geometry">
            <mxPoint x="787.5" y="401" as="sourcePoint" />
            <mxPoint x="772.5" y="441" as="targetPoint" />
          </mxGeometry>
        </mxCell>
        <mxCell id="lmcQ0BlkmHQUmphEc5RV-147" value="address" style="ellipse;whiteSpace=wrap;html=1;align=center;" parent="1" vertex="1">
          <mxGeometry x="750" y="406" width="50" height="30" as="geometry" />
        </mxCell>
        <mxCell id="lmcQ0BlkmHQUmphEc5RV-148" value="" style="endArrow=none;html=1;rounded=0;exitX=1;exitY=0.5;exitDx=0;exitDy=0;entryX=0.5;entryY=0;entryDx=0;entryDy=0;" parent="1" source="lmcQ0BlkmHQUmphEc5RV-139" target="lmcQ0BlkmHQUmphEc5RV-147" edge="1">
          <mxGeometry relative="1" as="geometry">
            <mxPoint x="792.5" y="356" as="sourcePoint" />
            <mxPoint x="777.5" y="396" as="targetPoint" />
          </mxGeometry>
        </mxCell>
        <mxCell id="lmcQ0BlkmHQUmphEc5RV-159" value="service_id" style="ellipse;whiteSpace=wrap;html=1;align=center;fontStyle=4;" parent="1" vertex="1">
          <mxGeometry x="570" y="45" width="70" height="30" as="geometry" />
        </mxCell>
        <mxCell id="lmcQ0BlkmHQUmphEc5RV-160" value="" style="endArrow=none;html=1;rounded=0;exitX=0.5;exitY=1;exitDx=0;exitDy=0;entryX=0;entryY=0;entryDx=0;entryDy=0;" parent="1" source="lmcQ0BlkmHQUmphEc5RV-159" target="OKanMXsxuGWmoxmKhKZ7-2" edge="1">
          <mxGeometry relative="1" as="geometry">
            <mxPoint x="659" y="15" as="sourcePoint" />
            <mxPoint x="670" y="65" as="targetPoint" />
          </mxGeometry>
        </mxCell>
        <mxCell id="lmcQ0BlkmHQUmphEc5RV-161" value="" style="endArrow=none;html=1;rounded=0;exitX=0.5;exitY=1;exitDx=0;exitDy=0;entryX=0.25;entryY=0;entryDx=0;entryDy=0;" parent="1" source="lmcQ0BlkmHQUmphEc5RV-162" target="OKanMXsxuGWmoxmKhKZ7-2" edge="1">
          <mxGeometry relative="1" as="geometry">
            <mxPoint x="704" y="-15" as="sourcePoint" />
            <mxPoint x="680" y="110" as="targetPoint" />
          </mxGeometry>
        </mxCell>
        <mxCell id="lmcQ0BlkmHQUmphEc5RV-162" value="date" style="ellipse;whiteSpace=wrap;html=1;align=center;" parent="1" vertex="1">
          <mxGeometry x="630" y="7" width="50" height="30" as="geometry" />
        </mxCell>
        <mxCell id="lmcQ0BlkmHQUmphEc5RV-163" value="" style="endArrow=none;html=1;rounded=0;exitX=0.5;exitY=1;exitDx=0;exitDy=0;entryX=0.58;entryY=0.05;entryDx=0;entryDy=0;entryPerimeter=0;" parent="1" source="lmcQ0BlkmHQUmphEc5RV-164" target="OKanMXsxuGWmoxmKhKZ7-2" edge="1">
          <mxGeometry relative="1" as="geometry">
            <mxPoint x="659" y="-5" as="sourcePoint" />
            <mxPoint x="720" y="65" as="targetPoint" />
          </mxGeometry>
        </mxCell>
        <mxCell id="lmcQ0BlkmHQUmphEc5RV-164" value="" style="ellipse;whiteSpace=wrap;html=1;align=center;" parent="1" vertex="1">
          <mxGeometry x="669" y="-34" width="70" height="40" as="geometry" />
        </mxCell>
        <mxCell id="lmcQ0BlkmHQUmphEc5RV-165" value="type" style="text;strokeColor=none;align=center;fillColor=none;html=1;verticalAlign=middle;whiteSpace=wrap;rounded=0;" parent="1" vertex="1">
          <mxGeometry x="674" y="-28" width="60" height="30" as="geometry" />
        </mxCell>
        <mxCell id="lmcQ0BlkmHQUmphEc5RV-166" value="" style="endArrow=none;html=1;rounded=0;exitX=0;exitY=1;exitDx=0;exitDy=0;entryX=0.94;entryY=-0.05;entryDx=0;entryDy=0;entryPerimeter=0;" parent="1" source="lmcQ0BlkmHQUmphEc5RV-167" target="OKanMXsxuGWmoxmKhKZ7-2" edge="1">
          <mxGeometry relative="1" as="geometry">
            <mxPoint x="694" y="-5" as="sourcePoint" />
            <mxPoint x="745" y="65" as="targetPoint" />
          </mxGeometry>
        </mxCell>
        <mxCell id="lmcQ0BlkmHQUmphEc5RV-167" value="time" style="ellipse;whiteSpace=wrap;html=1;align=center;" parent="1" vertex="1">
          <mxGeometry x="746" y="14" width="50" height="30" as="geometry" />
        </mxCell>
        <mxCell id="lmcQ0BlkmHQUmphEc5RV-178" value="item" style="whiteSpace=wrap;html=1;align=center;" parent="1" vertex="1">
          <mxGeometry x="949" y="120" width="100" height="40" as="geometry" />
        </mxCell>
        <mxCell id="lmcQ0BlkmHQUmphEc5RV-180" value="item_id" style="ellipse;whiteSpace=wrap;html=1;align=center;fontStyle=4;" parent="1" vertex="1">
          <mxGeometry x="880" y="30" width="70" height="30" as="geometry" />
        </mxCell>
        <mxCell id="lmcQ0BlkmHQUmphEc5RV-181" value="" style="endArrow=none;html=1;rounded=0;exitX=0.5;exitY=1;exitDx=0;exitDy=0;entryX=0;entryY=0;entryDx=0;entryDy=0;" parent="1" source="lmcQ0BlkmHQUmphEc5RV-180" target="lmcQ0BlkmHQUmphEc5RV-178" edge="1">
          <mxGeometry relative="1" as="geometry">
            <mxPoint x="999" y="100" as="sourcePoint" />
            <mxPoint x="1079" y="100" as="targetPoint" />
          </mxGeometry>
        </mxCell>
        <mxCell id="lmcQ0BlkmHQUmphEc5RV-182" value="" style="endArrow=none;html=1;rounded=0;exitX=0.5;exitY=1;exitDx=0;exitDy=0;entryX=0.25;entryY=0;entryDx=0;entryDy=0;" parent="1" source="lmcQ0BlkmHQUmphEc5RV-183" target="lmcQ0BlkmHQUmphEc5RV-178" edge="1">
          <mxGeometry relative="1" as="geometry">
            <mxPoint x="1044" y="70" as="sourcePoint" />
            <mxPoint x="1019" y="100" as="targetPoint" />
          </mxGeometry>
        </mxCell>
        <mxCell id="lmcQ0BlkmHQUmphEc5RV-183" value="name" style="ellipse;whiteSpace=wrap;html=1;align=center;" parent="1" vertex="1">
          <mxGeometry x="959" y="40" width="50" height="30" as="geometry" />
        </mxCell>
        <mxCell id="lmcQ0BlkmHQUmphEc5RV-184" value="" style="endArrow=none;html=1;rounded=0;exitX=0.5;exitY=1;exitDx=0;exitDy=0;entryX=0.5;entryY=0;entryDx=0;entryDy=0;" parent="1" source="lmcQ0BlkmHQUmphEc5RV-185" target="lmcQ0BlkmHQUmphEc5RV-178" edge="1">
          <mxGeometry relative="1" as="geometry">
            <mxPoint x="999" y="80" as="sourcePoint" />
            <mxPoint x="1024" y="110" as="targetPoint" />
          </mxGeometry>
        </mxCell>
        <mxCell id="lmcQ0BlkmHQUmphEc5RV-185" value="" style="ellipse;whiteSpace=wrap;html=1;align=center;" parent="1" vertex="1">
          <mxGeometry x="1009" y="10" width="70" height="40" as="geometry" />
        </mxCell>
        <mxCell id="lmcQ0BlkmHQUmphEc5RV-186" value="price per one" style="text;strokeColor=none;align=center;fillColor=none;html=1;verticalAlign=middle;whiteSpace=wrap;rounded=0;" parent="1" vertex="1">
          <mxGeometry x="1014" y="15" width="60" height="30" as="geometry" />
        </mxCell>
        <mxCell id="lmcQ0BlkmHQUmphEc5RV-187" value="" style="endArrow=none;html=1;rounded=0;exitX=0;exitY=1;exitDx=0;exitDy=0;entryX=0.75;entryY=0;entryDx=0;entryDy=0;" parent="1" source="lmcQ0BlkmHQUmphEc5RV-188" target="lmcQ0BlkmHQUmphEc5RV-178" edge="1">
          <mxGeometry relative="1" as="geometry">
            <mxPoint x="1034" y="80" as="sourcePoint" />
            <mxPoint x="1059" y="110" as="targetPoint" />
          </mxGeometry>
        </mxCell>
        <mxCell id="lmcQ0BlkmHQUmphEc5RV-188" value="qty" style="ellipse;whiteSpace=wrap;html=1;align=center;" parent="1" vertex="1">
          <mxGeometry x="1059" y="45" width="50" height="30" as="geometry" />
        </mxCell>
        <mxCell id="lmcQ0BlkmHQUmphEc5RV-189" value="" style="whiteSpace=wrap;html=1;align=center;" parent="1" vertex="1">
          <mxGeometry x="950" y="350" width="100" height="40" as="geometry" />
        </mxCell>
        <mxCell id="lmcQ0BlkmHQUmphEc5RV-190" value="supplier" style="text;strokeColor=none;align=center;fillColor=none;html=1;verticalAlign=middle;whiteSpace=wrap;rounded=0;" parent="1" vertex="1">
          <mxGeometry x="970" y="355" width="60" height="30" as="geometry" />
        </mxCell>
        <mxCell id="lmcQ0BlkmHQUmphEc5RV-191" value="supplier_id" style="ellipse;whiteSpace=wrap;html=1;align=center;fontStyle=4;" parent="1" vertex="1">
          <mxGeometry x="890" y="430" width="80" height="30" as="geometry" />
        </mxCell>
        <mxCell id="lmcQ0BlkmHQUmphEc5RV-192" value="" style="endArrow=none;html=1;rounded=0;exitX=0.25;exitY=1;exitDx=0;exitDy=0;entryX=0.5;entryY=0;entryDx=0;entryDy=0;" parent="1" source="lmcQ0BlkmHQUmphEc5RV-189" target="lmcQ0BlkmHQUmphEc5RV-191" edge="1">
          <mxGeometry relative="1" as="geometry">
            <mxPoint x="960" y="395" as="sourcePoint" />
            <mxPoint x="950" y="445" as="targetPoint" />
          </mxGeometry>
        </mxCell>
        <mxCell id="lmcQ0BlkmHQUmphEc5RV-193" value="contact_no" style="ellipse;whiteSpace=wrap;html=1;align=center;" parent="1" vertex="1">
          <mxGeometry x="973" y="419" width="67" height="20" as="geometry" />
        </mxCell>
        <mxCell id="lmcQ0BlkmHQUmphEc5RV-194" value="" style="endArrow=none;html=1;rounded=0;exitX=0.5;exitY=1;exitDx=0;exitDy=0;entryX=0.5;entryY=0;entryDx=0;entryDy=0;" parent="1" source="lmcQ0BlkmHQUmphEc5RV-189" target="lmcQ0BlkmHQUmphEc5RV-193" edge="1">
          <mxGeometry relative="1" as="geometry">
            <mxPoint x="1084.5" y="395" as="sourcePoint" />
            <mxPoint x="1084.5" y="445" as="targetPoint" />
          </mxGeometry>
        </mxCell>
        <mxCell id="lmcQ0BlkmHQUmphEc5RV-195" value="name" style="ellipse;whiteSpace=wrap;html=1;align=center;" parent="1" vertex="1">
          <mxGeometry x="1025" y="440" width="50" height="30" as="geometry" />
        </mxCell>
        <mxCell id="lmcQ0BlkmHQUmphEc5RV-196" value="" style="endArrow=none;html=1;rounded=0;exitX=0.75;exitY=1;exitDx=0;exitDy=0;entryX=0.5;entryY=0;entryDx=0;entryDy=0;" parent="1" source="lmcQ0BlkmHQUmphEc5RV-189" target="lmcQ0BlkmHQUmphEc5RV-195" edge="1">
          <mxGeometry relative="1" as="geometry">
            <mxPoint x="1085" y="400" as="sourcePoint" />
            <mxPoint x="1070" y="440" as="targetPoint" />
          </mxGeometry>
        </mxCell>
        <mxCell id="lmcQ0BlkmHQUmphEc5RV-197" value="address" style="ellipse;whiteSpace=wrap;html=1;align=center;" parent="1" vertex="1">
          <mxGeometry x="1047.5" y="405" width="50" height="30" as="geometry" />
        </mxCell>
        <mxCell id="lmcQ0BlkmHQUmphEc5RV-198" value="" style="endArrow=none;html=1;rounded=0;exitX=1;exitY=0.5;exitDx=0;exitDy=0;entryX=0.5;entryY=0;entryDx=0;entryDy=0;" parent="1" source="lmcQ0BlkmHQUmphEc5RV-189" target="lmcQ0BlkmHQUmphEc5RV-197" edge="1">
          <mxGeometry relative="1" as="geometry">
            <mxPoint x="1090" y="355" as="sourcePoint" />
            <mxPoint x="1075" y="395" as="targetPoint" />
          </mxGeometry>
        </mxCell>
        <mxCell id="lmcQ0BlkmHQUmphEc5RV-201" value="" style="endArrow=none;html=1;rounded=0;exitX=0.5;exitY=1;exitDx=0;exitDy=0;entryX=0.5;entryY=0;entryDx=0;entryDy=0;" parent="1" source="lmcQ0BlkmHQUmphEc5RV-15" edge="1">
          <mxGeometry relative="1" as="geometry">
            <mxPoint x="575" y="175" as="sourcePoint" />
            <mxPoint x="540" y="230" as="targetPoint" />
          </mxGeometry>
        </mxCell>
        <mxCell id="lmcQ0BlkmHQUmphEc5RV-202" value="" style="endArrow=none;html=1;rounded=0;exitX=0.25;exitY=1;exitDx=0;exitDy=0;entryX=0.5;entryY=0;entryDx=0;entryDy=0;" parent="1" source="lmcQ0BlkmHQUmphEc5RV-15" edge="1">
          <mxGeometry relative="1" as="geometry">
            <mxPoint x="555" y="185" as="sourcePoint" />
            <mxPoint x="490" y="200" as="targetPoint" />
          </mxGeometry>
        </mxCell>
        <mxCell id="lmcQ0BlkmHQUmphEc5RV-203" value="description" style="ellipse;whiteSpace=wrap;html=1;align=center;" parent="1" vertex="1">
          <mxGeometry x="562.5" y="200" width="60" height="30" as="geometry" />
        </mxCell>
        <mxCell id="lmcQ0BlkmHQUmphEc5RV-204" value="" style="endArrow=none;html=1;rounded=0;exitX=0.25;exitY=1;exitDx=0;exitDy=0;entryX=0.5;entryY=0;entryDx=0;entryDy=0;" parent="1" target="lmcQ0BlkmHQUmphEc5RV-203" edge="1">
          <mxGeometry relative="1" as="geometry">
            <mxPoint x="588" y="175" as="sourcePoint" />
            <mxPoint x="570" y="200" as="targetPoint" />
          </mxGeometry>
        </mxCell>
        <mxCell id="lmcQ0BlkmHQUmphEc5RV-207" value="order_id" style="ellipse;whiteSpace=wrap;html=1;align=center;" parent="1" vertex="1">
          <mxGeometry x="440" y="200" width="80" height="30" as="geometry" />
        </mxCell>
        <mxCell id="lmcQ0BlkmHQUmphEc5RV-208" value="" style="endArrow=none;html=1;rounded=0;dashed=1;dashPattern=1 2;entryX=0.938;entryY=0.733;entryDx=0;entryDy=0;entryPerimeter=0;" parent="1" edge="1">
          <mxGeometry relative="1" as="geometry">
            <mxPoint x="442.48" y="220" as="sourcePoint" />
            <mxPoint x="517.52" y="221.99" as="targetPoint" />
          </mxGeometry>
        </mxCell>
        <mxCell id="lmcQ0BlkmHQUmphEc5RV-209" value="1" style="resizable=0;html=1;whiteSpace=wrap;align=right;verticalAlign=bottom;" parent="lmcQ0BlkmHQUmphEc5RV-208" connectable="0" vertex="1">
          <mxGeometry x="1" relative="1" as="geometry" />
        </mxCell>
        <mxCell id="lmcQ0BlkmHQUmphEc5RV-210" value="service_id" style="ellipse;whiteSpace=wrap;html=1;align=center;" parent="1" vertex="1">
          <mxGeometry x="505" y="230" width="80" height="30" as="geometry" />
        </mxCell>
        <mxCell id="lmcQ0BlkmHQUmphEc5RV-211" value="" style="endArrow=none;html=1;rounded=0;dashed=1;dashPattern=1 2;" parent="1" edge="1">
          <mxGeometry relative="1" as="geometry">
            <mxPoint x="510" y="254" as="sourcePoint" />
            <mxPoint x="580" y="254" as="targetPoint" />
          </mxGeometry>
        </mxCell>
        <mxCell id="lmcQ0BlkmHQUmphEc5RV-212" value="1" style="resizable=0;html=1;whiteSpace=wrap;align=right;verticalAlign=bottom;" parent="lmcQ0BlkmHQUmphEc5RV-211" connectable="0" vertex="1">
          <mxGeometry x="1" relative="1" as="geometry" />
        </mxCell>
        <mxCell id="lmcQ0BlkmHQUmphEc5RV-213" value="customer_id" style="ellipse;whiteSpace=wrap;html=1;align=center;" parent="1" vertex="1">
          <mxGeometry x="200" y="365" width="80" height="35" as="geometry" />
        </mxCell>
        <mxCell id="lmcQ0BlkmHQUmphEc5RV-214" value="" style="endArrow=none;html=1;rounded=0;dashed=1;dashPattern=1 2;" parent="1" edge="1">
          <mxGeometry relative="1" as="geometry">
            <mxPoint x="210" y="391" as="sourcePoint" />
            <mxPoint x="270" y="391" as="targetPoint" />
          </mxGeometry>
        </mxCell>
        <mxCell id="lmcQ0BlkmHQUmphEc5RV-215" value="1" style="resizable=0;html=1;whiteSpace=wrap;align=right;verticalAlign=bottom;" parent="lmcQ0BlkmHQUmphEc5RV-214" connectable="0" vertex="1">
          <mxGeometry x="1" relative="1" as="geometry" />
        </mxCell>
        <mxCell id="lmcQ0BlkmHQUmphEc5RV-216" value="" style="endArrow=none;html=1;rounded=0;exitX=0.75;exitY=1;exitDx=0;exitDy=0;entryX=0.5;entryY=0;entryDx=0;entryDy=0;" parent="1" target="lmcQ0BlkmHQUmphEc5RV-213" edge="1">
          <mxGeometry relative="1" as="geometry">
            <mxPoint x="190" y="336" as="sourcePoint" />
            <mxPoint x="215" y="386" as="targetPoint" />
          </mxGeometry>
        </mxCell>
        <mxCell id="lmcQ0BlkmHQUmphEc5RV-217" value="description" style="ellipse;whiteSpace=wrap;html=1;align=center;" parent="1" vertex="1">
          <mxGeometry x="880" y="195" width="60" height="30" as="geometry" />
        </mxCell>
        <mxCell id="lmcQ0BlkmHQUmphEc5RV-218" value="" style="endArrow=none;html=1;rounded=0;exitX=1;exitY=1;exitDx=0;exitDy=0;" parent="1" edge="1">
          <mxGeometry relative="1" as="geometry">
            <mxPoint x="895" y="171" as="sourcePoint" />
            <mxPoint x="910" y="196" as="targetPoint" />
          </mxGeometry>
        </mxCell>
        <mxCell id="lmcQ0BlkmHQUmphEc5RV-219" value="item_id" style="ellipse;whiteSpace=wrap;html=1;align=center;" parent="1" vertex="1">
          <mxGeometry x="835" y="250" width="80" height="35" as="geometry" />
        </mxCell>
        <mxCell id="lmcQ0BlkmHQUmphEc5RV-222" value="" style="endArrow=none;html=1;rounded=0;dashed=1;dashPattern=1 2;exitX=0;exitY=1;exitDx=0;exitDy=0;entryX=1;entryY=1;entryDx=0;entryDy=0;" parent="1" source="lmcQ0BlkmHQUmphEc5RV-219" target="lmcQ0BlkmHQUmphEc5RV-219" edge="1">
          <mxGeometry relative="1" as="geometry">
            <mxPoint x="813" y="285" as="sourcePoint" />
            <mxPoint x="887" y="285.5" as="targetPoint" />
          </mxGeometry>
        </mxCell>
        <mxCell id="lmcQ0BlkmHQUmphEc5RV-224" value="" style="endArrow=none;html=1;rounded=0;exitX=0;exitY=1;exitDx=0;exitDy=0;" parent="1" edge="1">
          <mxGeometry relative="1" as="geometry">
            <mxPoint x="869" y="175" as="sourcePoint" />
            <mxPoint x="869" y="250" as="targetPoint" />
          </mxGeometry>
        </mxCell>
        <mxCell id="lmcQ0BlkmHQUmphEc5RV-225" value="service_id" style="ellipse;whiteSpace=wrap;html=1;align=center;" parent="1" vertex="1">
          <mxGeometry x="780.5" y="200" width="84" height="40" as="geometry" />
        </mxCell>
        <mxCell id="lmcQ0BlkmHQUmphEc5RV-226" value="" style="endArrow=none;html=1;rounded=0;exitX=0.5;exitY=1;exitDx=0;exitDy=0;" parent="1" edge="1">
          <mxGeometry relative="1" as="geometry">
            <mxPoint x="815" y="175" as="sourcePoint" />
            <mxPoint x="810" y="200" as="targetPoint" />
          </mxGeometry>
        </mxCell>
        <mxCell id="lmcQ0BlkmHQUmphEc5RV-227" value="" style="endArrow=none;html=1;rounded=0;dashed=1;dashPattern=1 2;" parent="1" edge="1">
          <mxGeometry relative="1" as="geometry">
            <mxPoint x="776" y="230" as="sourcePoint" />
            <mxPoint x="846" y="230" as="targetPoint" />
          </mxGeometry>
        </mxCell>
        <mxCell id="lmcQ0BlkmHQUmphEc5RV-243" value="" style="fontSize=12;html=1;endArrow=ERzeroToMany;startArrow=ERmandOne;rounded=0;exitX=0.5;exitY=1;exitDx=0;exitDy=0;" parent="1" source="lmcQ0BlkmHQUmphEc5RV-8" edge="1">
          <mxGeometry width="100" height="100" relative="1" as="geometry">
            <mxPoint x="430" y="300" as="sourcePoint" />
            <mxPoint x="400" y="340" as="targetPoint" />
          </mxGeometry>
        </mxCell>
        <mxCell id="lmcQ0BlkmHQUmphEc5RV-47" value="has" style="shape=rhombus;perimeter=rhombusPerimeter;whiteSpace=wrap;html=1;align=center;" parent="1" vertex="1">
          <mxGeometry x="340" y="225" width="120" height="60" as="geometry" />
        </mxCell>
        <mxCell id="oYja_Xbl4hTcft1lL92s-2" value="" style="fontSize=12;html=1;endArrow=ERoneToMany;startArrow=ERmandOne;rounded=0;exitX=0.5;exitY=1;exitDx=0;exitDy=0;" parent="1" edge="1">
          <mxGeometry width="100" height="100" relative="1" as="geometry">
            <mxPoint x="140" y="160" as="sourcePoint" />
            <mxPoint x="140" y="310" as="targetPoint" />
            <Array as="points">
              <mxPoint x="140" y="210" />
            </Array>
          </mxGeometry>
        </mxCell>
        <mxCell id="oYja_Xbl4hTcft1lL92s-3" value="has" style="shape=rhombus;perimeter=rhombusPerimeter;whiteSpace=wrap;html=1;align=center;" parent="1" vertex="1">
          <mxGeometry x="80" y="200" width="120" height="60" as="geometry" />
        </mxCell>
        <mxCell id="oYja_Xbl4hTcft1lL92s-13" value="" style="fontSize=12;html=1;endArrow=ERoneToMany;startArrow=ERmandOne;rounded=0;exitX=1;exitY=0.5;exitDx=0;exitDy=0;" parent="1" source="oYja_Xbl4hTcft1lL92s-14" edge="1">
          <mxGeometry width="100" height="100" relative="1" as="geometry">
            <mxPoint x="250" y="240" as="sourcePoint" />
            <mxPoint x="350" y="140" as="targetPoint" />
          </mxGeometry>
        </mxCell>
        <mxCell id="oYja_Xbl4hTcft1lL92s-15" value="" style="fontSize=12;html=1;endArrow=ERoneToMany;startArrow=ERmandOne;rounded=0;exitX=1;exitY=0.5;exitDx=0;exitDy=0;" parent="1" source="lmcQ0BlkmHQUmphEc5RV-1" target="oYja_Xbl4hTcft1lL92s-14" edge="1">
          <mxGeometry width="100" height="100" relative="1" as="geometry">
            <mxPoint x="190" y="140" as="sourcePoint" />
            <mxPoint x="350" y="140" as="targetPoint" />
          </mxGeometry>
        </mxCell>
        <mxCell id="oYja_Xbl4hTcft1lL92s-14" value="has" style="shape=rhombus;perimeter=rhombusPerimeter;whiteSpace=wrap;html=1;align=center;" parent="1" vertex="1">
          <mxGeometry x="220" y="110" width="105" height="60" as="geometry" />
        </mxCell>
        <mxCell id="oYja_Xbl4hTcft1lL92s-21" value="" style="fontSize=12;html=1;endArrow=ERoneToMany;startArrow=ERoneToMany;rounded=0;entryX=0.5;entryY=1;entryDx=0;entryDy=0;" parent="1" target="OKanMXsxuGWmoxmKhKZ7-2" edge="1">
          <mxGeometry width="100" height="100" relative="1" as="geometry">
            <mxPoint x="703" y="350" as="sourcePoint" />
            <mxPoint x="720" y="190" as="targetPoint" />
          </mxGeometry>
        </mxCell>
        <mxCell id="oYja_Xbl4hTcft1lL92s-22" value="service_employee_detail" style="shape=associativeEntity;whiteSpace=wrap;html=1;align=center;" parent="1" vertex="1">
          <mxGeometry x="629" y="220" width="150" height="70" as="geometry" />
        </mxCell>
        <mxCell id="oYja_Xbl4hTcft1lL92s-23" value="" style="fontSize=12;html=1;endArrow=ERoneToMany;startArrow=ERoneToMany;rounded=0;entryX=0.5;entryY=1;entryDx=0;entryDy=0;exitX=0.5;exitY=0;exitDx=0;exitDy=0;" parent="1" source="oYja_Xbl4hTcft1lL92s-25" target="lmcQ0BlkmHQUmphEc5RV-178" edge="1">
          <mxGeometry width="100" height="100" relative="1" as="geometry">
            <mxPoint x="560" y="320" as="sourcePoint" />
            <mxPoint x="660" y="220" as="targetPoint" />
          </mxGeometry>
        </mxCell>
        <mxCell id="oYja_Xbl4hTcft1lL92s-26" value="" style="fontSize=12;html=1;endArrow=ERoneToMany;startArrow=ERoneToMany;rounded=0;entryX=0.5;entryY=1;entryDx=0;entryDy=0;exitX=0.5;exitY=0;exitDx=0;exitDy=0;" parent="1" source="lmcQ0BlkmHQUmphEc5RV-189" target="oYja_Xbl4hTcft1lL92s-25" edge="1">
          <mxGeometry width="100" height="100" relative="1" as="geometry">
            <mxPoint x="1000" y="350" as="sourcePoint" />
            <mxPoint x="999" y="160" as="targetPoint" />
          </mxGeometry>
        </mxCell>
        <mxCell id="oYja_Xbl4hTcft1lL92s-25" value="item_supplier_detail" style="shape=associativeEntity;whiteSpace=wrap;html=1;align=center;" parent="1" vertex="1">
          <mxGeometry x="930" y="225" width="140" height="60" as="geometry" />
        </mxCell>
        <mxCell id="OKanMXsxuGWmoxmKhKZ7-1" value="" style="fontSize=12;html=1;endArrow=ERoneToMany;startArrow=ERoneToMany;rounded=0;entryX=0;entryY=0.5;entryDx=0;entryDy=0;exitX=1;exitY=0.5;exitDx=0;exitDy=0;" edge="1" parent="1" source="OKanMXsxuGWmoxmKhKZ7-2" target="lmcQ0BlkmHQUmphEc5RV-29">
          <mxGeometry width="100" height="100" relative="1" as="geometry">
            <mxPoint x="600" y="230" as="sourcePoint" />
            <mxPoint x="700" y="130" as="targetPoint" />
          </mxGeometry>
        </mxCell>
        <mxCell id="OKanMXsxuGWmoxmKhKZ7-3" value="" style="fontSize=12;html=1;endArrow=ERoneToMany;startArrow=ERoneToMany;rounded=0;entryX=0;entryY=0.5;entryDx=0;entryDy=0;exitX=1;exitY=0.5;exitDx=0;exitDy=0;" edge="1" parent="1" source="lmcQ0BlkmHQUmphEc5RV-15" target="OKanMXsxuGWmoxmKhKZ7-2">
          <mxGeometry width="100" height="100" relative="1" as="geometry">
            <mxPoint x="620" y="140" as="sourcePoint" />
            <mxPoint x="790" y="140" as="targetPoint" />
          </mxGeometry>
        </mxCell>
        <mxCell id="OKanMXsxuGWmoxmKhKZ7-2" value="service" style="rounded=1;arcSize=10;whiteSpace=wrap;html=1;align=center;" vertex="1" parent="1">
          <mxGeometry x="655" y="120" width="100" height="40" as="geometry" />
        </mxCell>
      </root>
    </mxGraphModel>
  </diagram>
</mxfile>
